<?xml version="1.0" encoding="UTF-8" standalone="no"?>
<!DOCTYPE svg PUBLIC "-//W3C//DTD SVG 1.1//EN" "http://www.w3.org/Graphics/SVG/1.1/DTD/svg11.dtd">
<svg height="100%" stroke-miterlimit="10" style="fill-rule:nonzero;clip-rule:evenodd;stroke-linecap:round;stroke-linejoin:round;" version="1.1" viewBox="0 0 1100 1100" width="100%" xml:space="preserve" xmlns="http://www.w3.org/2000/svg" xmlns:xlink="http://www.w3.org/1999/xlink">
<style>@media (prefers-color-scheme: dark) { .bgd { fill: #000000 } }</style>
<path class="bgd" d="M0 0L1024 0L1024 1024L0 1024L0 0Z" fill="#ffffff" fill-rule="nonzero" opacity="1" stroke="none"/>
<clipPath id="ArtboardFrame">
<rect height="1100" width="1100" x="0" y="0"/>
</clipPath>
<g clip-path="url(#ArtboardFrame)" id="Layer-1">
<g opacity="1">
<path d="M960.98 481.744C960.98 409.5 907.453 350.223 835.398 331.699C837.457 322.437 837.457 315.028 837.457 305.766C837.457 183.507 726.286 83.4776 590.41 83.4776C489.533 83.4776 401.008 139.05 363.951 216.85C343.364 203.884 318.66 194.622 291.896 194.622C230.135 194.622 178.667 240.932 178.667 296.504C178.667 307.618 180.725 318.732 184.843 329.847C110.729 348.371 55.1436 409.5 55.1436 481.744C55.1436 568.806 133.375 639.198 230.135 639.198C232.193 639.198 234.252 639.198 236.311 639.198C238.37 639.198 238.37 639.198 240.428 639.198L796.282 639.198C800.4 639.198 806.576 639.198 810.693 637.345C895.101 626.231 960.98 561.397 960.98 481.744Z" fill="#5077a2" fill-rule="nonzero" opacity="1" stroke="none"/>
<path d="M631.585 513.054L631.585 255.308C631.585 246.717 641.878 238.125 652.172 238.125L693.346 238.125C703.64 238.125 713.934 246.717 713.934 255.308L713.934 513.054C713.934 521.645 703.64 530.237 693.346 530.237L652.172 530.237C641.878 530.237 631.585 521.645 631.585 513.054ZM405.126 530.237L446.3 530.237C456.594 530.237 466.887 521.645 466.887 513.054L466.887 358.406C466.887 349.815 456.594 341.223 446.3 341.223L405.126 341.223C394.832 341.223 384.539 349.815 384.539 358.406L384.539 513.054C384.539 521.645 394.832 530.237 405.126 530.237ZM281.603 530.237L322.777 530.237C335.129 530.237 343.364 521.645 343.364 513.054L343.364 392.772C343.364 384.181 335.129 375.589 322.777 375.589L281.603 375.589C269.25 375.589 261.015 384.181 261.015 392.772L261.015 513.054C261.015 521.645 269.25 530.237 281.603 530.237ZM528.649 530.237L569.823 530.237C580.117 530.237 590.41 521.645 590.41 513.054L590.41 306.857C590.41 298.266 580.117 289.674 569.823 289.674L528.649 289.674C518.355 289.674 508.062 298.266 508.062 306.857L508.062 513.054C508.062 521.645 518.355 530.237 528.649 530.237Z" fill="#5077a2" fill-rule="nonzero" opacity="1" stroke="none"/>
</g>
<g opacity="1">
<path d="M415.125 325.594C413.77 325.689 412.449 325.871 411.156 326.156C403.124 327.93 396.001 332.708 389.75 337.875C387.756 339.523 385.852 341.288 383.969 343.062C376.76 340.455 367.955 343.781 361.594 347.125C356.701 349.697 352.162 352.851 347.781 356.25C347.379 355.583 346.91 354.942 346.25 354.406C343.69 352.329 340.049 352.245 336.938 352.719C335.244 352.977 333.572 353.396 331.938 353.938C331.89 353.903 331.861 353.846 331.812 353.812C326.129 349.852 317.922 353.38 312.75 356.594C311.906 357.119 310.911 357.758 310.125 358.312C304.378 362.37 299.329 367.387 294.688 372.656C288.146 380.082 282.224 388.276 277.938 397.219C277.385 398.372 276.867 399.557 276.406 400.75C275.251 403.741 274.237 407.565 274.594 411.031C274.518 411.2 274.418 411.361 274.344 411.531C271.721 417.533 269.47 425.709 274 431.406C274.787 432.396 275.727 433.239 276.781 433.938C282.385 437.652 289.608 435.393 295.156 432.375C295.004 433.474 295.278 434.488 296.625 434.969C296.875 435.058 297.143 435.121 297.406 435.156C297.84 435.214 298.281 435.099 298.719 435.062C299.088 436.383 299.718 437.58 301.031 438.375C301.206 438.481 301.409 438.537 301.594 438.625C302.357 440.311 303.365 441.863 305.031 442.906C305.83 443.407 306.674 443.748 307.562 444C307.757 444.33 307.869 444.678 308.094 445C308.651 445.796 309.238 446.482 309.938 447.156C312.006 449.152 314.578 450.526 317.312 451.469C317.522 454.742 318.715 457.754 321.906 459.375C323.867 460.371 326.113 460.595 328.375 460.562C331.965 462.124 336.177 462.205 340 461.562C348.433 460.146 356.086 455.443 362.812 450.375C366.459 447.628 369.888 444.622 373.25 441.531C378.971 439.815 384.243 436.479 388.938 432.938C394.112 429.034 398.864 424.583 403.469 420C403.867 419.937 404.224 419.989 404.625 419.906C413.773 418.025 420.223 411.665 419 405.719C419.171 404.601 419.402 403.491 419.594 402.375C423.947 397.111 428.102 391.705 431.781 385.969C434.885 381.13 437.785 376.011 439.594 370.531C440.532 367.689 441.177 364.697 441.063 361.688C441.003 360.127 440.775 358.558 440.219 357.094C439.639 355.565 438.768 354.255 437.656 353.062C437.599 353.001 437.527 352.966 437.469 352.906C437.479 352.854 437.49 352.802 437.5 352.75C438.142 349.368 438.174 345.664 436.406 342.594C435.662 341.301 434.644 340.322 433.5 339.5C432.98 338.046 432.399 336.612 431.625 335.219C430.318 332.866 428.652 330.42 426.563 328.688C423.361 326.034 419.19 325.308 415.125 325.594ZM376.594 347.938C377.317 347.976 378.022 348.107 378.719 348.281C377.599 349.439 376.435 350.568 375.344 351.75C374.347 352.83 373.414 353.964 372.438 355.062C370.609 355.941 368.858 357.089 367.312 358.125C360.788 362.497 354.175 366.786 347.375 370.719C346.983 370.945 346.581 371.15 346.188 371.375C346.496 370.7 346.82 370.034 347.094 369.344C347.903 367.302 348.658 364.71 348.875 362.188C352.857 358.856 356.956 355.703 361.406 353.062C362.477 352.427 363.578 351.815 364.688 351.25C368.208 349.458 372.554 347.724 376.594 347.938ZM336.375 360.5C336.939 360.5 337.503 360.488 338 360.719C338.967 361.167 339.346 362.139 339.469 363.219C338.913 363.715 338.3 364.155 337.75 364.656C337.543 364.844 337.362 365.061 337.156 365.25C337.033 363.627 336.877 362.01 336.375 360.5ZM325.062 372.5C324.961 374.416 324.695 376.343 324.25 378.188C324.1 378.351 323.93 378.493 323.781 378.656C323.769 378.539 323.749 378.429 323.75 378.312C323.755 377.789 323.777 377.546 323.844 377.031C323.935 376.325 324.098 375.625 324.281 374.938C324.503 374.108 324.766 373.306 325.062 372.5ZM306.5 380.375C303.369 386.426 300.374 392.552 296.938 398.438C294.879 401.963 292.65 405.632 289.656 408.469C289.469 408.327 289.235 408.251 289.125 408.156C287.845 407.052 287.734 406.17 287.938 404.531C291.734 398.089 296.324 392.1 301.156 386.406C302.893 384.36 304.669 382.353 306.5 380.375ZM343.25 385.062C339.961 387.556 336.742 390.231 333.594 393C332.822 393.194 332.052 393.415 331.281 393.625C331.304 393.595 331.321 393.561 331.344 393.531C332.545 391.968 333.71 390.398 334.906 388.844C337.444 387.83 339.928 386.725 342.375 385.531C342.672 385.386 342.954 385.209 343.25 385.062ZM315.375 398.844C314.242 400.757 312.937 402.56 311.688 404.406C312.861 402.506 314.089 400.666 315.375 398.844ZM299.438 412.906C299.074 413.775 298.716 414.633 298.438 415.531C298.012 416.905 297.59 418.969 297.781 420.781C297.322 421.186 296.879 421.612 296.406 422C295.767 422.525 295.108 423.046 294.438 423.531C291.878 425.382 288.088 428 285.031 425.75C284.585 425.422 284.195 425.022 283.844 424.594C282.729 423.237 282.413 421.542 282.406 419.781C286.991 420.917 292.073 418.995 295.875 416.219C297.19 415.258 298.293 414.064 299.438 412.906ZM309.375 422.25C308.731 423.525 308.19 424.791 307.656 426.156C307.522 426.233 307.384 426.299 307.25 426.375C307.434 425.43 307.743 424.549 308.031 423.625C308.24 423.417 308.417 423.176 308.625 422.969C308.872 422.723 309.127 422.494 309.375 422.25Z" fill="#5077a2" stroke="none"/>
</g>
<g opacity="1">
<path d="M296 265.375C294.332 265.59 292.687 266.091 291.156 266.781C289.131 267.695 287.294 268.946 285.625 270.406C283.305 272.435 281.34 274.855 279.625 277.406C274.565 284.933 271.21 293.576 268.219 302.094C263.698 314.969 260.155 328.209 257.094 341.5C256.041 346.072 255.129 350.661 254.156 355.25C253.443 358.614 252.647 361.959 252.031 365.344C251.931 365.893 251.839 366.57 251.75 367.125C251.717 367.331 251.727 367.611 251.688 367.844C247.1 368.533 242.53 369.252 237.906 369.719C231.663 370.349 225.397 370.774 219.156 371.438C206.419 372.791 193.558 374.769 181.375 378.812C174.972 380.938 168.514 383.533 163.031 387.531C153.927 394.17 147.971 403.998 144 414.375C140.911 422.445 138.894 430.913 137.375 439.406C136.381 444.967 135.528 450.609 135.125 456.25C136.72 462.238 145.475 465.11 154.688 462.656C163.9 460.203 170.063 453.363 168.469 447.375C168.372 447.04 168.539 446.465 168.562 446.125C168.618 445.333 168.681 444.54 168.75 443.75C168.991 441.011 169.284 438.287 169.656 435.562C170.835 426.943 172.534 418.208 175.75 410.094C176.404 408.443 177.142 406.82 178.031 405.281C178.227 404.943 178.455 404.588 178.688 404.25C183.688 401.82 189.126 400.242 194.5 398.969C203.027 396.948 211.715 395.507 220.344 394C227.493 392.751 234.622 391.53 241.781 390.344C245.454 389.735 249.168 389.172 252.812 388.406C265.663 385.708 278.428 381.998 290.125 375.938C303.521 368.997 315.417 358.415 320.656 343.938C322.143 339.829 323.047 335.502 323.469 331.156C324.506 320.478 322.507 309.962 319.875 299.656C318.371 293.764 316.691 287.873 314.438 282.219C311.8 275.602 307.499 266.513 299.531 265.375C298.352 265.207 297.181 265.222 296 265.375ZM292.781 276.656C293.007 276.797 293.247 276.911 293.438 277.062C293.933 277.458 294.385 277.945 294.781 278.438C297.524 281.853 298.943 286.364 300.156 290.5C301.879 296.371 302.997 302.395 303.938 308.438C302.358 309.044 300.815 309.755 299.312 310.562C281.982 319.871 275.655 338.921 265.5 354.438C263.581 357.37 261.363 360.118 258.938 362.656C259.295 360.804 259.658 358.967 260.062 357.125C261.435 350.882 263.282 344.712 265.125 338.594C267.984 329.104 271.13 319.689 274.688 310.438C277.325 303.577 280.161 296.787 283.531 290.25C285.567 286.302 287.776 282.328 290.594 278.875C291.084 278.274 291.947 277.307 292.781 276.656ZM304.656 313.375C305.741 321.828 306.088 330.467 303.938 338.781C303.19 341.67 302.146 344.456 300.688 347.062C295.366 356.576 285.263 360.88 275.188 363.562C270.948 364.691 266.637 365.486 262.312 366.219C266.069 362.556 269.33 358.4 272.125 353.969C277.092 346.095 281.024 337.628 286.188 329.875C290.144 323.934 294.873 318.335 301.25 314.906C302.355 314.312 303.496 313.82 304.656 313.375Z" fill="#5077a2" stroke="none"/>
</g>
<path d="M378.668 396.602L378.668 396.602" fill="none" opacity="1" stroke="#5077a2" stroke-linecap="butt" stroke-linejoin="round" stroke-width="40"/>
<path d="M349.338 349.156L349.338 349.156" fill="#5077a2" fill-rule="nonzero" opacity="1" stroke="#5077a2" stroke-linecap="butt" stroke-linejoin="round" stroke-width="40"/>
<path d="M393.765 330.609L393.765 330.609" fill="#5077a2" fill-rule="nonzero" opacity="1" stroke="#5077a2" stroke-linecap="butt" stroke-linejoin="round" stroke-width="40"/>
<path d="M424.82 314.65L424.82 314.65" fill="#5077a2" fill-rule="nonzero" opacity="1" stroke="#5077a2" stroke-linecap="butt" stroke-linejoin="round" stroke-width="40"/>
<path d="M421.369 307.318L421.369 307.318" fill="#5077a2" fill-rule="nonzero" opacity="1" stroke="#5077a2" stroke-linecap="butt" stroke-linejoin="round" stroke-width="40"/>
<g opacity="1">
<path d="M-938.312-98.8438C-937.84-98.7408-937.399-98.5696-936.938-98.4375C-936.987-98.509-937.033-98.6058-937.094-98.6562C-937.432-98.9361-937.907-98.8961-938.312-98.8438ZM-936.938-98.4375C-936.917-98.4076-936.901-98.3605-936.875-98.3438C-936.803-98.297-936.654-98.3312-936.625-98.25C-936.591-98.1554-936.714-98.0691-936.719-97.9688C-936.724-97.865-936.667-97.7908-936.656-97.6875C-936.607-97.2223-936.634-96.7197-936.594-96.25C-936.468-94.7876-936.38-93.3784-936.438-91.9062C-936.459-91.3489-936.504-90.8077-936.5-90.25C-936.496-89.7762-936.549-89.2957-936.406-88.8438C-936.192-88.164-935.189-87.6521-934.875-87.0938C-934.603-86.6095-934.519-86.0363-934.375-85.5C-934.204-84.8647-934.111-84.1972-933.938-83.5625C-933.746-82.8621-933.49-82.1954-933.281-81.5C-933.085-80.847-932.498-80.1765-932.719-79.5312C-932.972-78.7893-933.882-78.4513-934.5-77.9688C-936.276-76.5824-938.28-75.5648-940.344-74.6875C-946.441-72.0953-953.148-71.4241-959.719-71.4062C-961.175-71.4023-962.639-71.4587-964.094-71.5312C-964.816-71.5672-965.55-71.4761-966.25-71.6562C-966.697-71.7712-967.111-72.0494-967.438-72.375C-967.736-72.6724-967.845-73.1077-968.062-73.4688C-968.279-73.8288-968.5-74.1725-968.719-74.5312C-969.842-76.3742-971.04-78.1721-972.281-79.9375C-974.944-84.033-982.23-84.0342-988.531-79.9375C-994.832-75.8408-997.757-69.1893-995.094-65.0938C-993.997-63.5332-992.962-61.9732-991.969-60.3438C-991.762-60.004-991.549-59.6534-991.344-59.3125C-991.138-58.9705-990.828-58.665-990.719-58.2812C-990.591-57.8356-990.546-57.3563-990.656-56.9062C-990.83-56.1993-991.265-55.5709-991.562-54.9062C-992.492-52.8274-993.465-50.7746-994.375-48.6875C-996.293-44.2898-997.748-39.7453-998.906-35.0938C-999.535-32.5666-1000.01-30.0338-1000.25-27.4375C-1000.42-25.6063-1000.55-23.7763-1000.53-21.9375C-1000.52-20.9354-1000.67-19.8864-1000.34-18.9375C-999.991-17.901-999.19-17.0843-998.562-16.1875C-997.302-14.3864-996.031-12.5734-994.562-10.9375C-993.901-10.2002-993.214-9.44847-992.406-8.875C-991.611-8.31083-990.689-7.98808-989.812-7.5625C-989.013-7.17442-988.124-6.91666-987.375-6.4375C-986.659-5.97899-986.061-5.35952-985.438-4.78125C-984.228-3.65983-983.132-2.40064-981.75-1.5C-978.891 0.363425-975.464 1.14107-972.188 1.875C-969.708 2.43034-967.25 2.73867-964.719 2.875C-963.307 2.95103-961.875 3.00228-960.469 2.8125C-942.22 6.78617-922.457-12.7381-916.344-40.8125C-910.389-68.1599-919.591-93.4694-936.938-98.4375Z" fill="#5077a2" stroke="none"/>
</g>
<g fill="#5077a2" opacity="1" stroke="none">
<path d="M247.551 312.184L247.551 314.234L241.751 314.234L241.751 329.398L239.383 329.398L239.383 314.234L233.583 314.234L233.583 312.184L247.551 312.184Z"/>
<path d="M251.969 316.566C252.86 316.566 253.723 316.775 254.559 317.193C255.395 317.611 256.032 318.152 256.469 318.816C256.891 319.449 257.172 320.187 257.313 321.031C257.438 321.609 257.501 322.531 257.501 323.797L248.301 323.797C248.34 325.07 248.641 326.092 249.204 326.861C249.766 327.631 250.637 328.016 251.817 328.016C252.919 328.016 253.797 327.652 254.454 326.926C254.829 326.504 255.094 326.016 255.251 325.461L257.325 325.461C257.27 325.922 257.088 326.435 256.78 327.002C256.471 327.568 256.126 328.031 255.743 328.391C255.102 329.016 254.309 329.437 253.364 329.656C252.856 329.781 252.282 329.844 251.641 329.844C250.079 329.844 248.754 329.275 247.669 328.139C246.583 327.002 246.04 325.41 246.04 323.363C246.04 321.348 246.587 319.711 247.68 318.453C248.774 317.195 250.204 316.566 251.969 316.566ZM255.333 322.121C255.247 321.207 255.047 320.476 254.735 319.93C254.157 318.914 253.192 318.406 251.84 318.406C250.872 318.406 250.059 318.756 249.403 319.455C248.747 320.154 248.399 321.043 248.36 322.121L255.333 322.121Z"/>
<path d="M258.895 316.848L261.626 316.848L264.508 321.266L267.426 316.848L269.993 316.906L265.762 322.965L270.18 329.398L267.485 329.398L264.368 324.687L261.344 329.398L258.672 329.398L263.09 322.965L258.895 316.848Z"/>
<path d="M272.512 313.344L274.645 313.344L274.645 316.848L276.649 316.848L276.649 318.57L274.645 318.57L274.645 326.762C274.645 327.199 274.794 327.492 275.09 327.641C275.254 327.726 275.528 327.769 275.911 327.769C276.012 327.769 276.122 327.767 276.239 327.764C276.356 327.76 276.493 327.75 276.649 327.734L276.649 329.398C276.407 329.469 276.155 329.519 275.893 329.551C275.631 329.582 275.348 329.598 275.044 329.598C274.059 329.598 273.391 329.346 273.04 328.842C272.688 328.338 272.512 327.684 272.512 326.879L272.512 318.57L270.813 318.57L270.813 316.848L272.512 316.848L272.512 313.344Z"/>
</g>
<path d="M244.568 230.728C246.352 230.728 247.736 231.198 248.721 232.138C249.706 233.078 250.252 234.146 250.361 235.341L248.5 235.341C248.289 234.433 247.869 233.714 247.239 233.183C246.609 232.652 245.725 232.387 244.587 232.387C243.199 232.387 242.079 232.875 241.225 233.85C240.371 234.825 239.945 236.32 239.945 238.334C239.945 239.984 240.33 241.322 241.1 242.348C241.871 243.374 243.02 243.888 244.549 243.888C245.955 243.888 247.026 243.347 247.762 242.267C248.152 241.697 248.443 240.949 248.635 240.022L250.495 240.022C250.329 241.506 249.779 242.749 248.846 243.753C247.727 244.962 246.218 245.566 244.318 245.566C242.681 245.566 241.307 245.071 240.194 244.079C238.73 242.768 237.997 240.745 237.997 238.008C237.997 235.93 238.547 234.225 239.647 232.895C240.837 231.45 242.477 230.728 244.568 230.728Z" fill="#5077a2" opacity="1" stroke="none"/>
<g fill="#ffffff" opacity="1" stroke="none">
<path d="M328.348 525.766C302.285 525.766 281.796 517.406 266.88 500.687C251.964 483.886 244.506 460.856 244.506 431.597C244.506 399.962 252.988 375.58 269.954 358.451C284.706 343.535 303.474 336.077 326.258 336.077C356.746 336.077 379.038 346.076 393.135 366.073C400.92 377.301 405.1 388.57 405.674 399.88L367.81 399.88C365.351 391.193 362.196 384.636 358.344 380.211C351.46 372.343 341.256 368.409 327.733 368.409C313.964 368.409 303.105 373.961 295.155 385.067C287.205 396.172 283.231 411.887 283.231 432.212C283.231 452.537 287.431 467.761 295.831 477.883C304.232 488.004 314.907 493.065 327.856 493.065C341.133 493.065 351.255 488.721 358.221 480.034C362.073 475.362 365.269 468.355 367.81 459.012L405.305 459.012C402.027 478.764 393.647 494.827 380.165 507.203C366.683 519.578 349.411 525.766 328.348 525.766Z"/>
<path d="M553.319 344.191C560.121 347.059 565.899 351.28 570.653 356.853C574.587 361.442 577.701 366.524 579.996 372.097C582.291 377.67 583.438 384.022 583.438 391.152C583.438 399.757 581.266 408.219 576.923 416.538C572.579 424.857 565.408 430.737 555.409 434.179C563.769 437.539 569.69 442.313 573.173 448.501C576.656 454.689 578.398 464.134 578.398 476.838L578.398 489.008C578.398 497.286 578.726 502.9 579.381 505.85C580.365 510.522 582.66 513.964 586.266 516.177L586.266 520.725L544.591 520.725C543.443 516.71 542.624 513.472 542.132 511.014C541.148 505.932 540.616 500.728 540.534 495.401L540.288 478.559C540.124 467.003 538.014 459.299 533.957 455.447C529.9 451.595 522.298 449.669 511.152 449.669L472.059 449.669L472.059 520.725L435.055 520.725L435.055 339.519L523.938 339.519C536.641 339.765 546.435 341.322 553.319 344.191ZM545.451 396.315C545.451 385.333 541.804 377.957 534.51 374.187C530.412 372.056 524.265 370.99 516.07 370.99L472.059 370.99L472.059 419.673L514.963 419.673C523.487 419.673 529.879 418.689 534.141 416.722C541.681 413.28 545.451 406.478 545.451 396.315Z"/>
<path d="M721.249 520.725L684.491 520.725L650.438 368.655C650.438 372.097 650.479 376.994 650.561 383.345C650.643 389.697 650.684 394.635 650.684 398.159L650.684 520.725L615.401 520.725L615.401 339.519L670.476 339.519L703.423 482.001L736.124 339.519L790.584 339.519L790.584 520.725L755.302 520.725L755.302 398.159C755.302 394.635 755.343 389.697 755.424 383.345C755.506 376.994 755.547 372.097 755.547 368.655L721.249 520.725Z"/>
</g>
<g fill="#5077a2" opacity="1" stroke="none">
<path d="M352.645 871.212L343.291 915.43L303.75 915.43L313.104 871.212L231.754 871.212L239.265 835.923L341.307 711.205L386.658 711.205L359.306 839.607L382.548 839.607L375.887 871.212L352.645 871.212ZM268.319 839.607L319.765 839.607L338.614 750.888L268.319 839.607Z"/>
<path d="M487.85 792.271C476.323 792.271 467.772 796.004 462.198 803.468C459.174 807.719 456.765 814.05 454.97 822.459L435.27 915.43L394.312 915.43L427.05 761.234L466.308 761.234L461.489 783.768C468.197 775.737 474.15 770.021 479.346 766.619C488.417 760.572 499.188 757.549 511.659 757.549C523.47 757.549 532.493 760.147 538.729 765.344C543.547 770.162 546.665 776.351 548.083 783.91C555.263 774.839 563.247 768.178 572.034 763.927C581.199 759.675 590.883 757.549 601.088 757.549C607.89 757.549 614.315 758.872 620.362 761.517C626.409 764.163 631.464 768.792 635.527 775.406C638.645 780.792 640.156 787.406 640.062 795.248C639.873 800.444 638.739 808.05 636.66 818.065L615.685 915.43L574.302 915.43L595.135 817.073C596.363 811.215 596.458 806.397 595.419 802.617C593.34 795.437 587.482 791.846 577.845 791.846C566.696 791.846 558.003 796.476 551.767 805.735C548.555 810.648 546.193 816.554 544.681 823.451L525.265 915.43L484.59 915.43L504.006 823.451C505.99 814.286 506.463 807.625 505.424 803.468C503.628 796.004 497.77 792.271 487.85 792.271Z"/>
<path d="M743.946 880.708C747.253 878.156 750.512 874.613 753.725 870.078L794.967 870.078C791.943 879.243 785.188 888.55 774.7 897.998C758.26 913.021 738.135 920.532 714.325 920.532C694.673 920.532 678.682 914.202 666.352 901.541C654.022 888.88 650.88 868.283 656.927 839.749C662.596 813.011 673.721 792.508 690.303 778.241C706.885 763.974 725.994 756.84 747.631 756.84C760.48 756.84 771.558 759.25 780.865 764.068C790.172 768.887 797.045 776.493 801.486 786.886C805.643 796.051 807.297 806.68 806.446 818.774C806.068 825.86 804.368 836.064 801.344 849.386L695.618 849.386C692.878 864.882 695.429 875.747 703.271 881.983C707.995 885.857 714.278 887.794 722.12 887.794C730.435 887.794 737.71 885.432 743.946 880.708ZM740.544 790.146C731.191 790.146 723.325 793.075 716.947 798.933C710.57 804.79 705.68 812.727 702.279 822.742L765.063 822.742C766.669 812.066 765.134 803.964 760.457 798.437C755.78 792.909 749.142 790.146 740.544 790.146Z"/>
</g>
</g>
</svg>
